<?xml version="1.0" encoding="utf-8"?>
<!-- Generator: Adobe Illustrator 21.0.0, SVG Export Plug-In . SVG Version: 6.00 Build 0)  -->
<svg version="1.1" id="图层_1" xmlns="http://www.w3.org/2000/svg" xmlns:xlink="http://www.w3.org/1999/xlink" x="0px" y="0px"
	 viewBox="0 0 288 288" style="enable-background:new 0 0 288 288;" xml:space="preserve">
<style type="text/css">
	.st0{fill:#FFFFFF;}
	.st1{fill:#3FA9F5;}
</style>
<g>
	<ellipse transform="matrix(0.7071 -0.7071 0.7071 0.7071 -59.6468 144)" class="st0" cx="144" cy="144" rx="144" ry="144"/>
</g>
<path class="st1" d="M131.3,194.9l89.1-89.1c3.5-3.5,9.2-3.5,12.7,0l6.4,6.4c3.5,3.5,3.5,9.2,0,12.7L150.4,214
	c-3.5,3.5-9.2,3.5-12.7,0l-6.4-6.4C127.8,204.1,127.8,198.4,131.3,194.9z"/>
<path class="st1" d="M48.5,112.2l6.4-6.4c3.5-3.5,9.2-3.5,12.7,0l89.1,89.1c3.5,3.5,3.5,9.2,0,12.7l-6.4,6.4
	c-3.5,3.5-9.2,3.5-12.7,0l-89.1-89.1C45,121.4,45,115.7,48.5,112.2z"/>
</svg>
