<?xml version="1.0" encoding="utf-8"?>
<!-- Generator: Adobe Illustrator 21.0.0, SVG Export Plug-In . SVG Version: 6.00 Build 0)  -->
<svg version="1.1" id="true_x5F_logo" xmlns="http://www.w3.org/2000/svg" xmlns:xlink="http://www.w3.org/1999/xlink" x="0px"
	 y="0px" viewBox="0 0 288 288" style="enable-background:new 0 0 288 288;" xml:space="preserve">
<style type="text/css">
	.st0{fill:#FF1D25;}
	.st1{fill:#FFFFFF;}
</style>
<g>
	<ellipse transform="matrix(0.7071 -0.7071 0.7071 0.7071 -59.6468 144)" class="st0" cx="144" cy="144" rx="144" ry="144"/>
</g>
<path class="st1" d="M213.4,87.4l-126,126c-3.8,3.8-9.9,4.1-13.4,0.6l0,0c-3.5-3.5-3.3-9.5,0.6-13.4l126-126
	c3.8-3.8,9.9-4.1,13.4-0.6l0,0C217.5,77.5,217.2,83.5,213.4,87.4z"/>
<path class="st1" d="M214,214L214,214c-3.5,3.5-9.6,3.2-13.4-0.6l-126-126c-3.8-3.8-4.1-9.9-0.6-13.4l0,0c3.5-3.5,9.5-3.3,13.4,0.6
	l126,126C217.2,204.5,217.5,210.5,214,214z"/>
</svg>
