<?xml version="1.0" encoding="utf-8"?>
<!-- Generator: Adobe Illustrator 21.0.0, SVG Export Plug-In . SVG Version: 6.00 Build 0)  -->
<svg version="1.1" id="search_x5F_logo" xmlns="http://www.w3.org/2000/svg" xmlns:xlink="http://www.w3.org/1999/xlink" x="0px"
	 y="0px" viewBox="0 0 288 288" style="enable-background:new 0 0 288 288;" xml:space="preserve">
<style type="text/css">
	.st0{fill:#3FA9F5;}
</style>
<g>
	<path class="st0" d="M240,72H48c-6.6,0-12,5.4-12,12v120c0,6.6,5.4,12,12,12h192c6.6,0,12-5.4,12-12V84C252,77.4,246.6,72,240,72z
		 M234,186c0,6.6-5.4,12-12,12H66c-6.6,0-12-5.4-12-12v-84c0-6.6,5.4-12,12-12h156c6.6,0,12,5.4,12,12V186z"/>
</g>
<path class="st0" d="M36,90V74c0-14.8,12.2-27,27-27h36c14.8,0,27,12.2,27,27v16C126,90,36,90,36,90z"/>
</svg>
