<?xml version="1.0" encoding="utf-8"?>
<!-- Generator: Adobe Illustrator 21.0.0, SVG Export Plug-In . SVG Version: 6.00 Build 0)  -->
<svg version="1.1" id="header" xmlns="http://www.w3.org/2000/svg" xmlns:xlink="http://www.w3.org/1999/xlink" x="0px" y="0px"
	 viewBox="0 0 288 288" style="enable-background:new 0 0 288 288;" xml:space="preserve">
<style type="text/css">
	.st0{fill:#AAAAAA;}
	.st1{fill:#FFFFFF;}
	.st2{fill:none;stroke:#FFFFFF;stroke-width:9;stroke-miterlimit:10;}
</style>
<g>
	<circle class="st0" cx="144" cy="144" r="144"/>
</g>
<g>
	<path class="st1" d="M144,63c19.9,0,36,16.1,36,36s-16.1,36-36,36s-36-16.1-36-36S124.1,63,144,63 M144,54c-24.8,0-45,20.2-45,45
		s20.2,45,45,45s45-20.2,45-45S168.8,54,144,54L144,54z"/>
</g>
<g>
	<path class="st2" d="M81.5,216.5c0-39.8,22.2-73,62-73"/>
</g>
<path class="st2" d="M207.5,216.5c0-39.8-24.2-73-64-73"/>
</svg>
