<?xml version="1.0" encoding="utf-8"?>
<!-- Generator: Adobe Illustrator 21.0.0, SVG Export Plug-In . SVG Version: 6.00 Build 0)  -->
<svg version="1.1" id="图层_1" xmlns="http://www.w3.org/2000/svg" xmlns:xlink="http://www.w3.org/1999/xlink" x="0px" y="0px"
	 viewBox="0 0 288 288" style="enable-background:new 0 0 288 288;" xml:space="preserve">
<style type="text/css">
	.st0{fill:#37A2FE;}
</style>
<g>
	<path class="st0" d="M58.8,122C80.1,72.7,117.3,50,172.9,58.2c2.7-7.8,5.4-15.6,8-23.4c0.7-2.1,1.3-4.2,2-6.3
		c0.6-1.8,1.8-2,3.1-0.5c0.3,0.4,0.6,0.8,0.9,1.3c15,22,30,43.9,45,65.9c1.9,2.8,1.7,3.2-1.5,4.6c-24.4,11-48.7,22-73.1,32.9
		c-1.2,0.5-2.4,0.8-4.2,1.5c1-3.6,1.8-6.5,2.6-9.3c2.4-8.2,4.7-16.4,7.3-24.6c0.6-1.8,0-2.4-1.6-3c-19.6-6.9-39.3-7-58.9,0
		c-14.8,5.3-28.1,13.3-40.1,23.3c-1,0.8-2,1.5-3,2.2C59.1,122.6,58.9,122.3,58.8,122z"/>
	<path class="st0" d="M54.4,189.7c6.7-3.1,13.4-6.2,20.2-9.2c18.3-8.2,36.5-16.5,54.8-24.7c0.8-0.3,1.7-0.4,2.5-0.6
		c0,1,0.3,2,0.1,2.9c-2.7,10.1-5.5,20.2-8.4,30.2c-0.5,1.7-0.1,2.5,1.5,3.2c10.5,4.8,21.6,5.9,33,5.3c18.2-1.1,34.2-8.1,49.1-17.8
		c6-3.9,11.5-8.5,17.3-12.8c0.7-0.5,1.4-1.1,2.3-1.4c-8.3,22.8-22,41.3-43.5,53.7c-21.6,12.4-45,14-69.4,10.1
		c-3.6,10.9-7.1,21.6-10.7,32.4C100.6,259.4,59,198.3,54.4,189.7z"/>
</g>
</svg>
