<?xml version="1.0" encoding="utf-8"?>
<!-- Generator: Adobe Illustrator 21.0.0, SVG Export Plug-In . SVG Version: 6.00 Build 0)  -->
<svg version="1.1" id="search_x5F_logo" xmlns="http://www.w3.org/2000/svg" xmlns:xlink="http://www.w3.org/1999/xlink" x="0px"
	 y="0px" viewBox="0 0 288 288" style="enable-background:new 0 0 288 288;" xml:space="preserve">
<style type="text/css">
	.st0{fill:#3FA9F5;}
</style>
<g>
	<path class="st0" d="M117.2,67.2c12,0,23.3,4.7,31.8,13.2c17.5,17.5,17.5,46.1,0,63.6c-8.5,8.5-19.8,13.2-31.8,13.2
		s-23.3-4.7-31.8-13.2c-17.5-17.5-17.5-46.1,0-63.6C93.9,71.9,105.2,67.2,117.2,67.2 M117.2,40.2c-18.4,0-36.9,7-50.9,21.1
		c-28.1,28.1-28.1,73.7,0,101.8c14.1,14.1,32.5,21.1,50.9,21.1s36.9-7,50.9-21.1c28.1-28.1,28.1-73.7,0-101.8
		C154,47.2,135.6,40.2,117.2,40.2L117.2,40.2z"/>
</g>
<g>
	<path class="st0" d="M174.5,149c-3.1,0-6.2,1.2-8.5,3.5l-8.5,8.5c-4.7,4.7-4.7,12.3,0,17l53,53c2.3,2.3,5.4,3.5,8.5,3.5
		s6.2-1.2,8.5-3.5l8.5-8.5c4.7-4.7,4.7-12.3,0-17l-53-53C180.6,150.2,177.5,149,174.5,149L174.5,149z"/>
</g>
</svg>
