<?xml version="1.0" encoding="utf-8"?>
<!-- Generator: Adobe Illustrator 21.0.0, SVG Export Plug-In . SVG Version: 6.00 Build 0)  -->
<svg version="1.1" id="图层_1" xmlns="http://www.w3.org/2000/svg" xmlns:xlink="http://www.w3.org/1999/xlink" x="0px" y="0px"
	 viewBox="0 0 288 288" style="enable-background:new 0 0 288 288;" xml:space="preserve">
<style type="text/css">
	.st0{fill:#3FA9F5;}
	.st1{fill:#FFFFFF;}
</style>
<ellipse transform="matrix(0.7071 -0.7071 0.7071 0.7071 -59.6468 144)" class="st0" cx="144" cy="144" rx="144" ry="144"/>
<g>
	<path class="st1" d="M128.3,213.4L128.3,213.4c-3.5,3.5-9.2,3.5-12.7,0l-50.9-50.9c-3.5-3.5-3.5-9.2,0-12.7l0,0
		c3.5-3.5,9.2-3.5,12.7,0l50.9,50.9C131.8,204.1,131.8,209.9,128.3,213.4z"/>
</g>
<path class="st1" d="M128.3,213.4L242.8,98.8c3.5-3.5,3.5-9.2,0-12.7l0,0c-3.5-3.5-9.2-3.5-12.7,0L115.5,200.6
	c-3.5,3.5-3.5,9.2,0,12.7l0,0C119,216.9,124.8,216.9,128.3,213.4z"/>
</svg>
