<?xml version="1.0" encoding="utf-8"?>
<!-- Generator: Adobe Illustrator 21.0.0, SVG Export Plug-In . SVG Version: 6.00 Build 0)  -->
<svg version="1.1" id="sau_x5F_logo_1_" xmlns="http://www.w3.org/2000/svg" xmlns:xlink="http://www.w3.org/1999/xlink" x="0px"
	 y="0px" viewBox="0 0 288 288" style="enable-background:new 0 0 288 288;" xml:space="preserve">
<style type="text/css">
	.st0{fill:#1B3069;}
	.st1{fill:#336698;}
</style>
<g id="sau_x5F_logo">
	<path class="st0" d="M196.7,206.2c4.6-3.9,9-8,12.6-13.2c10.6-15,8.9-40-9.7-50.2c-11-6-22.7-9.5-34.3-13.4
		c-15.4-5.1-30.4-11.4-44.2-20.8c-3.1-2.1-6-4.4-8.8-7c-10.4-9.5-14.7-20.4-10.8-34.9c4.5-16.8,15.7-25,30.4-28.6
		c20-4.9,40.6-1.2,59.8,6.4c8.9,3.6,17.4,8.2,25.2,14.5c1.5,1.2,2.2,0.7,3.2-0.5c4-4.7,8.1-9.2,12.2-13.8c0.6-0.7,1.2-1.3,1.8-1.8
		s1.3-0.6,1.7,0.1c0.3,0.5,0,1.3-0.4,1.7c-0.9,1-1.8,1.9-2.6,2.9c-12,13.6-23.9,27.2-35.9,40.8c-0.6,0.7-1.6,1.6-2.1,1.4
		c-0.9-0.5-0.9-1.4-1-2.5c-0.2-2-0.2-3.9-0.4-5.9c-0.7-8.3-4-15.2-9.9-20.1c-16.7-13.9-33.6-19-54-14.5c-5.1,1.1-11.2,4.3-14.8,8.8
		c-2.9,3.7-3.4,7.7-1.6,12.2c2.5,6.4,6.8,11,11.6,15.1c9.8,8.1,21.2,11.5,32.7,14.4c13.7,3.5,27.7,4.3,41.4,7
		c9.7,1.9,19.4,4.4,28.1,9.9c12.3,7.7,19.2,19.4,19,35.6c-0.1,8.8-3.4,16.4-8,23.3c-8.7,13-20.4,21.8-32.8,29.5
		c-2.5,1.6-5.1,2.9-7.7,4.3C196.8,207.3,195.9,206.9,196.7,206.2z"/>
	<path class="st1" d="M168.6,201.2c0.6-1,1.3-1.1,1.9-1.4c10.2-4.9,13-18,5.8-27.6c-3.9-5.2-8.7-8-13.9-11.1
		c-12.2-7.3-21.7-10.9-34.4-16.7c-11-5.1-25.8-14-35.7-22.5c-13.6-12.1-15.5-38-4.7-50.6c1.5-1.5,3.2-4.2,5-3.3
		c1.5,0.8,0.5,4,0.3,6.1c-1.5,15.6,5.2,27.2,16.7,35.5c11.9,8.6,24.9,14.6,38,20.4c12.6,5.5,24.2,11,37,16.2
		c5.3,2.2,10,5.4,14.2,9.6c10,9.9,10.5,22.9,1.3,33.9c-5.6,6.8-12.9,9.7-20.8,11.1C175.8,201.1,172.3,201.5,168.6,201.2z"/>
	<path class="st1" d="M252,68.9c-16.5,10.1-33,18.7-50.1,25.9c3.4-4.8,27.2-26.1,34.9-33.1c1.4-1.3,2.5-1.5,4.1-0.5
		C244.5,63.5,247.6,65.9,252,68.9z"/>
	<path class="st0" d="M113.7,181.5c7.7-8.7,14.9-16.7,22-24.9c1.1-1.2,2.1-2.6,1.2-3.7c-0.8-1-2.2,0.1-3.6,1.6
		c-7.1,7.9-14.3,15.7-21.4,23.6c-1.1,1.2-2.2,1.9-3.8,1.5C97.1,177.1,86,177,75,179c-13.2,2.4-25,6.2-36.2,15.9
		c-4.2,3.7-8.5,8.5-10.6,14.1c-2.3,6.4-0.5,10.9,4.6,14.7c2.2,1.7,4.7,2.8,7.3,3.4c7.5,1.8,14.7,0.2,21.8-2.6
		c13.9-5.5,25.5-14.9,36.2-25.9c1.2-1.3,2.2-1.8,4-1c8.8,3.1,19.3,8.4,28.9,20.3c7.5,10.4,9.3,18.4,11.2,26.9
		c0.5,2.3,0.8,4.6,1.3,7.2c14-25.7,19.2-29.3,35.2-35.7C158.2,199.9,137.1,190,113.7,181.5z M91.9,200.2
		c-8.9,7.7-17.7,15.3-28.5,19.5c-7.3,2.4-14.6,4.2-22.9,3c-3.6-0.8-6.4-1.8-8.4-5.8c-2-4.2,1.5-10,4.1-12.8
		c10.1-10.7,22.3-14.1,36-13.6c8.2,0.2,16,2.3,24.4,5.1C94.8,197.4,93.4,198.9,91.9,200.2z"/>
</g>
</svg>
